<svg xmlns="http://www.w3.org/2000/svg" viewBox="0 0 290 140" width="580" height="280">
<defs><linearGradient id="body" x2=".15" y2="1"><stop stop-color="#d4bc8f"/><stop offset=".44" stop-color="#a29372"/><stop offset="1" stop-color="#5e6e59"/></linearGradient><linearGradient id="fin"><stop stop-color="#997f5f" stop-opacity=".82"/><stop offset="1" stop-color="#203f3c" stop-opacity=".86"/></linearGradient><pattern id="scale" patternUnits="userSpaceOnUse" width="12" height="9"><path d="M0 2 Q6 12 12 2" stroke="#172e29" fill="none" stroke-width=".9" opacity=".3"/></pattern><clipPath id="bodyclip"><path d="M22 74 Q68 50 181 54 Q244 55 254 70 Q259 85 215 87 C132 91 75 86 22 74Z"/></clipPath></defs>
<path d="M25 74 Q9 63 3 65 Q-1 74 3 85 Q12 85 25 74Z" fill="url(#fin)" stroke="#29483d" stroke-width="1.6"/><path d="M102 52 Q112 39 125 52Z" fill="url(#fin)" stroke="#355146" stroke-width="1"/><path d="M95 98 Q135 117 185 98" fill="url(#fin)" stroke="#355146"/><path d="M22 74 Q68 50 181 54 Q244 55 254 70 Q259 85 215 87 C132 91 75 86 22 74Z" fill="url(#body)" stroke="#315347" stroke-width="1.6"/><g clip-path="url(#bodyclip)"><rect x="30" y="33" width="215" height="77" fill="url(#scale)" opacity=".42"/><ellipse cx="80" cy="62" rx="3" ry="1.5" opacity=".20" fill="#112b22"/><ellipse cx="104" cy="69" rx="4" ry="2.5" opacity=".20" fill="#112b22"/><ellipse cx="128" cy="76" rx="5" ry="1.5" opacity=".20" fill="#112b22"/><ellipse cx="152" cy="64" rx="3" ry="2.5" opacity=".20" fill="#112b22"/><ellipse cx="176" cy="71" rx="4" ry="1.5" opacity=".20" fill="#112b22"/><ellipse cx="200" cy="78" rx="5" ry="2.5" opacity=".20" fill="#112b22"/><path d="M57 63 Q143 42 230 65" fill="none" stroke="#f5eccf" stroke-width="10" opacity=".13"/><path d="M56 82 Q148 108 232 82" fill="none" stroke="#102b29" stroke-width="5" opacity=".12"/></g><path d="M207 53 Q190 72 210 90" fill="none" stroke="#4c665b" stroke-width="1.7" opacity=".6"/><ellipse cx="236" cy="68" rx="6" ry="5" fill="#f0d5a8"/><ellipse cx="237" cy="68" rx="3.7" ry="3.6" fill="#122628"/><circle cx="236" cy="67" r="1.1" fill="white"/><path d="M251 75 q-8 5 -14 4" fill="none" stroke="#4a655b" stroke-width="1.6"/></svg>